<?xml version="1.0" encoding="utf-8"?>
<!-- Generator: Adobe Illustrator 28.0.0, SVG Export Plug-In . SVG Version: 6.00 Build 0)  -->
<svg version="1.1" id="Layer_1" xmlns="http://www.w3.org/2000/svg" xmlns:xlink="http://www.w3.org/1999/xlink" x="0px" y="0px"
	 viewBox="0 0 25 25" style="enable-background:new 0 0 25 25;" xml:space="preserve">
<style type="text/css">
	.st0{fill:#BFACBF;stroke:#000000;stroke-width:0.2835;stroke-linecap:round;stroke-linejoin:round;stroke-miterlimit:10;}
</style>
<path class="st0" d="M20.41,11.27c0,3.5,0.04,6.88-0.02,10.26c-0.02,1.37-1.33,2.52-2.82,2.54c-4.59,0.04-9.18,0.05-13.76,0
	c-1.72-0.02-2.87-1.3-2.88-3.04c-0.01-4.38-0.01-8.76,0-13.15c0-1.71,1.03-3.03,2.64-3.07c3.37-0.09,6.75-0.03,10.14-0.03
	c-0.57,1.12-1.07,1.45-2.2,1.45c-2.38,0-4.76-0.01-7.15,0c-1.3,0-1.9,0.58-1.9,1.87c-0.01,4.18-0.01,8.35,0,12.53
	c0,1.38,0.62,2.01,1.98,2.01c4.21,0,8.41,0,12.62,0c1.3,0,1.8-0.51,1.8-1.83c0.01-2.21,0-4.41,0-6.62
	C18.86,12.48,18.86,12.48,20.41,11.27z"/>
<path class="st0" d="M6.72,18.37c0.47-1.88,0.88-3.56,1.32-5.23c0.07-0.26,0.27-0.52,0.47-0.72c3.1-3.13,6.21-6.25,9.31-9.37
	c0.06-0.06,0.14-0.1,0.25-0.18c1.35,1.42,2.69,2.84,4.12,4.35c-3.16,3.13-6.41,6.36-9.67,9.58c-0.08,0.08-0.17,0.18-0.28,0.21
	C10.47,17.45,8.69,17.89,6.72,18.37z M18.95,4.92c-0.26-0.08-0.5-0.24-0.72-0.21c-0.29,0.04-0.62,0.16-0.82,0.35
	c-2.42,2.4-4.82,4.81-7.2,7.24c-0.2,0.21-0.35,0.75-0.23,0.94c0.32,0.48,0.7,0.17,1.01-0.14c2.41-2.41,4.82-4.81,7.23-7.22
	C18.4,5.72,18.53,5.49,18.95,4.92z M11.27,16.29c-0.89-0.87-1.63-1.59-2.4-2.35c0.07,0.75-0.78,1.44-0.12,2.26
	C9.55,17.2,10.33,16.15,11.27,16.29z"/>
<path class="st0" d="M23.14,6.25c-1.46-1.52-2.78-2.88-4.13-4.28c-0.03,0.08-0.02,0.04-0.01,0.02c1.66-1.85,2.11-1.87,3.86-0.14
	c0.33,0.33,0.67,0.66,0.99,0.99c0.85,0.89,0.85,1.62,0.01,2.53C23.63,5.63,23.42,5.92,23.14,6.25z"/>
</svg>
